<?xml version="1.0" encoding="UTF-8"?>
<svg id="Layer_1" xmlns="http://www.w3.org/2000/svg" version="1.1" viewBox="0 0 600 149.9377594">
  <!-- Generator: Adobe Illustrator 30.3.0, SVG Export Plug-In . SVG Version: 2.1.3 Build 182)  -->
  <defs>
    <style>
      .st0 {
        fill: #ed2630;
      }
    </style>
  </defs>
  <path class="st0" d="M57.6563721,66.0835037l-22.9763184-5.4833374c-3.7262573-.8275757-7.6374512-3.4388428-7.6374512-7.5668945,0-5.8217163,7.0161743-9.1627197,13.9539185-9.1627197,9.2661133,0,15.5553589,5.2984009,18.2337036,12.8370361.5543823,1.5604248,2.257019,2.388855,3.8266602,1.861084l16.0817261-5.4072876c1.5875244-.5337524,2.442627-2.2524414,1.9110107-3.8406982-5.6626587-16.9172974-22.3458252-25.4417114-40.4008179-25.4417114C20.4483032,23.8789749,1.7767334,34.9004593,1.7767334,54.0049515c0,12.3943481,8.2038574,24.0793457,24.6426392,28.0439453l24.2949219,5.9007568c4.4866943,1.1447754,7.6350708,3.184021,7.6350708,7.774353,0,7.3980103-8.0415039,10.0654907-15.479126,10.0654907-9.9355469,0-17.1235962-5.8560181-19.8504028-14.5961304-.4957886-1.5891113-2.1789551-2.4827881-3.7728271-2.0025024l-17.0874023,5.1484375c-.7866821.2370605-1.4436035.7827759-1.8208618,1.5126343-.3772583.7297974-.4420776,1.5812378-.1810303,2.3602295,6.4076538,19.1156006,21.8331909,27.7772217,42.1573487,27.7772217,21.9282837,0,41.3025513-10.9522705,41.3025513-32.3473511,0-7.9799194-2.7603149-22.0980225-25.9612427-27.5585327Z"/>
  <path class="st0" d="M328.0759888,89.2600174l-17.213501-4.9990845c-1.6065063-.4665527-3.2872314.4543457-3.7587891,2.0593872-2.8111572,9.5675049-9.0627441,18.7053223-22.4851074,18.7053223-16.979248,0-24.2260132-13.0800781-24.2260132-30.1259766,0-21.1047363,10.5211792-29.9873657,24.0858765-29.9873657.8903198,0,15.2293091-.602356,21.1439819,14.1019897.5935059,1.4754028,2.225769,2.2443848,3.7401123,1.7588501l16.7337646-5.3658447c1.5751343-.505127,2.4545288-2.1766968,1.9798584-3.7612915-4.7653809-15.9071655-21.3815308-27.6978149-44.0126953-27.6978149-34.0281372,0-49.7017822,24.9564819-49.7017822,51.0203857,0,26.2125244,15.7481689,51.0211182,49.7017822,51.0211182,32.8704224,0,43.512085-23.7030029,46.0903931-33.0039673.4438477-1.6013184-.4821167-3.2623291-2.0778809-3.725708Z"/>
  <path class="st0" d="M378.8931885,51.0203323c-11.3823242,0-15.2133179,4.9252319-18.1883545,6.5599976-1.9151611,1.0524292-3.3997192-.1203613-3.3997192-1.9786987v-26.7434692c0-1.6763916-1.3590088-3.0354614-3.0354614-3.0354614h-18.9193726c-1.6763916,0-3.0354614,1.3590698-3.0354614,3.0354614v92.2214966c0,1.6764526,1.3590698,3.0355225,3.0354614,3.0355225h18.9193726c1.6764526,0,3.0354614-1.3590698,3.0354614-3.0355225v-35.6981201c0-10.274353,4.6576538-15.5496216,10.8970337-15.5496216.2494507,0,9.5807495-.7028809,9.5807495,12.4254761v38.8222656c0,1.6764526,1.3590088,3.0355225,3.0354614,3.0355225h18.9178467c1.6763916,0,3.0354614-1.3590698,3.0354614-3.0355225v-44.5836182c0-4.1938477-.538208-25.475708-23.878479-25.475708Z"/>
  <path class="st0" d="M442.4297485,51.0207596c-22.246521,0-37.1377563,15.0988159-37.1377563,37.4838867,0,16.1588135,9.031311,37.4853516,37.7617798,37.4853516,1.8981323,0,20.6496582.571167,30.8450928-15.1452026.9096069-1.4020996.5147705-3.2758179-.8834839-4.1913452l-11.3835449-7.4537964c-.6760254-.442627-1.5006714-.5974731-2.2911987-.4301758-.7905273.1672363-1.4816895.6428833-1.9205322,1.3213501-4.9633789,7.6730347-11.8997803,7.6419067-13.7415161,7.6419067-8.600708,0-13.1176147-5.7953491-13.1828613-12.2134399-.0046997-.4595947.1746826-.9020386.4979858-1.2286377.3234253-.3265991.7640381-.5101929,1.2236328-.5101929h43.4125977c1.6764526,0,3.0354614-1.3590698,3.0354614-3.0355225v-2.8643799c0-19.2054443-12.1660156-36.8598022-36.2356567-36.8598022ZM452.7503052,79.2730179h-20.0865479c-.7353516,0-1.3321533-.5944214-1.3352051-1.3297729-.0302124-7.2277832,5.810791-10.3322144,11.3094482-10.3322144,6.3475952,0,11.4802856,4.0878296,11.4476318,10.3338013-.0038452.7348022-.6004639,1.328186-1.3353271,1.328186Z"/>
  <path class="st0" d="M530.3279419,52.8941727h-12.0756226c-1.1239014,0-2.0349731-.9111328-2.0349731-2.0350342v-1.0187988c0-1.8048096.6005249-3.1688232,1.8048706-4.0950928,1.2018433-.9255371,2.9378052-1.3883057,5.2069092-1.3883057h5.5712891c1.6764526,0,3.0354614-1.3590088,3.0354614-3.0354614v-12.4633789c0-1.6764526-1.3590088-3.0355225-3.0354614-3.0355225h-12.1665039c-8.6066895,0-14.9482422,1.7938232-19.0198975,5.3800049-4.0731201,3.5869141-6.1089478,9.1282349-6.1089478,16.6246338v3.0319214c0,1.1239014-.9111328,2.0350342-2.0349731,2.0350342h-9.1590576c-1.6764526,0-3.0354614,1.3590088-3.0354614,3.0354614v13.2965698c0,1.6764526,1.3590088,3.0355225,3.0354614,3.0355225h8.8818359c1.1239014,0,2.0349731.9110718,2.0349731,2.0349731v46.782959c0,1.6764526,1.3590088,3.0355225,3.0354614,3.0355225h18.9185181c1.6765137,0,3.0355225-1.3590698,3.0355225-3.0355225v-46.6531982c0-1.1954956.9692383-2.1647339,2.1647339-2.1647339h11.9458618c1.6765137,0,3.0355225-1.3590698,3.0355225-3.0355225v-13.2965698c0-1.6764526-1.3590088-3.0354614-3.0355225-3.0354614Z"/>
  <path class="st0" d="M577.5098267,80.5226517l-14.4376831-3.1939087c-.6956177-.1561279-5.4152832-1.0145874-5.4152832-4.4419556,0-2.1345825,2.1860962-5.0675659,9.2316284-5.0675659,4.918335,0,10.6965942,2.7327881,12.6110229,7.1392212.6522217,1.5011597,2.3775024,2.2158813,3.8994141,1.6135864l12.4378662-4.9224854c1.550293-.6135254,2.3150024-2.3618164,1.7138062-3.9168701-2.9226685-7.5596924-12.4522095-16.7119751-30.5916748-16.7119751-16.9488525,0-31.7922363,7.5222778-31.7922363,22.7681274,0,12.385437,9.7328491,18.5122681,21.7957153,21.1026001l12.0096436,2.5682983c4.7429199,1.0350342,8.2606201,2.8234253,8.2606201,5.7612915,0,5.3276367-8.1065674,5.762085-10.4130859,5.762085-5.2139893,0-11.9818115-2.4170532-14.6409302-9.124939-.5986328-1.5101929-2.2806396-2.2825928-3.8153076-1.7497559l-12.9437866,4.4936523c-.8083496.2805786-1.4606934.8894043-1.7964478,1.6763916-.3358765.7870483-.3231201,1.678894.0327759,2.4570312,4.1077881,8.9817505,13.3544312,19.1847534,33.3030396,19.1847534,12.2589111,0,33.0410767-4.0124512,33.0410767-23.6708984,0-15.5463867-13.6775513-19.7866821-22.4901733-21.7266846Z"/>
  <path class="st0" d="M233.9540405,54.2024612c-.5669556-.8193359-1.4998779-1.3082886-2.4962158-1.3082886h-19.4978638c-1.3526001,0-2.5419922.8949585-2.916687,2.1945801l-11.1248169,38.5863037c-.2633667.9135742-1.1000977,1.5422974-2.0510254,1.5410156-.9508057-.0012817-1.7858887-.6321411-2.046814-1.5465088l-11.0094604-38.572998c-.3720703-1.3035278-1.5632935-2.2023926-2.9188843-2.2023926h-45.621521c-.8892822,0-1.7338867.3899536-2.3106079,1.0668335l-16.9876099,19.9382935c-.536438.6295776-1.4084473.8579712-2.1846313.5721436-.7761841-.2857666-1.2918091-1.0252075-1.2918091-1.8522949V28.8581619c0-1.6763916-1.3590088-3.0354614-3.0354614-3.0354614h-18.848877c-1.6764526,0-3.0354614,1.3590698-3.0354614,3.0354614v92.2214966c0,1.6764526,1.3590088,3.0355225,3.0354614,3.0355225h18.848877c1.6764526,0,3.0354614-1.3590698,3.0354614-3.0355225v-21.8309937c0-.8299561.519165-1.571228,1.2990112-1.8549194.7799683-.2837524,1.6541138-.0493774,2.1873779.5865479l21.006897,25.0498657c.5767212.6877441,1.4283447,1.085022,2.3258667,1.085022h23.199646c1.2093506,0,2.3033447-.7178955,2.784668-1.8272705.4813843-1.109436.2583008-2.3987427-.5678101-3.2819214l-29.0944824-31.1026001c-1.0826416-1.1573486-1.0927734-2.9526978-.0233154-4.1221924l21.3737183-23.3716431c.4644165-.5078125,1.159729-.7371216,1.8352051-.6051025.675415.131958,1.2332764.6062012,1.4723511,1.2515259l22.7962036,61.5322876c.1849365.6151123.359314,1.4245605,0,2.4985962l-.3469849.8670654c-.9315796,2.3275681-3.1860962,3.8536301-5.6931152,3.8536301h-6.8201294c-1.6764526,0-3.0354614,1.3590698-3.0354614,3.0354614v14.0592041c0,1.6764526,1.3590088,3.0355225,3.0354614,3.0355225h8.1394653c11.6952515,0,22.7390137-2.0983276,29.2952881-19.5750122l27.6325684-73.3631592c.3511353-.932373.2224121-1.9777832-.3444824-2.7971115Z"/>
</svg>